<mxfile host="app.diagrams.net" agent="Mozilla/5.0 (Windows NT 10.0; Win64; x64) AppleWebKit/537.36 (KHTML, like Gecko) Chrome/131.0.0.0 Safari/537.36 OPR/116.0.0.0" version="26.0.13">
  <diagram name="Página-1" id="adFS3JS7LfKgtj3e3wEI">
    <mxGraphModel grid="1" page="1" gridSize="10" guides="1" tooltips="1" connect="1" arrows="1" fold="1" pageScale="1" pageWidth="827" pageHeight="1169" math="0" shadow="0">
      <root>
        <mxCell id="0" />
        <mxCell id="1" parent="0" />
        <mxCell id="BbvLRZbAMobA44Dv6JU9-1" value="" style="rounded=0;whiteSpace=wrap;html=1;" vertex="1" parent="1">
          <mxGeometry x="200" y="10" width="190" height="500" as="geometry" />
        </mxCell>
        <mxCell id="BbvLRZbAMobA44Dv6JU9-6" value="Logar e Autenticar" style="ellipse;whiteSpace=wrap;html=1;" vertex="1" parent="1">
          <mxGeometry x="240" y="130" width="120" height="80" as="geometry" />
        </mxCell>
        <mxCell id="BbvLRZbAMobA44Dv6JU9-7" value="Cadastrar Usuário" style="ellipse;whiteSpace=wrap;html=1;" vertex="1" parent="1">
          <mxGeometry x="240" y="40" width="120" height="80" as="geometry" />
        </mxCell>
        <mxCell id="BbvLRZbAMobA44Dv6JU9-9" value="&amp;nbsp;Mostrar histórico de aposta" style="ellipse;whiteSpace=wrap;html=1;" vertex="1" parent="1">
          <mxGeometry x="240" y="220" width="120" height="80" as="geometry" />
        </mxCell>
        <mxCell id="BbvLRZbAMobA44Dv6JU9-13" style="edgeStyle=orthogonalEdgeStyle;rounded=0;orthogonalLoop=1;jettySize=auto;html=1;exitX=1;exitY=0.3333333333333333;exitDx=0;exitDy=0;exitPerimeter=0;entryX=0;entryY=0.5;entryDx=0;entryDy=0;" edge="1" parent="1" source="BbvLRZbAMobA44Dv6JU9-12" target="BbvLRZbAMobA44Dv6JU9-7">
          <mxGeometry relative="1" as="geometry" />
        </mxCell>
        <mxCell id="BbvLRZbAMobA44Dv6JU9-14" style="edgeStyle=orthogonalEdgeStyle;rounded=0;orthogonalLoop=1;jettySize=auto;html=1;exitX=1;exitY=0.3333333333333333;exitDx=0;exitDy=0;exitPerimeter=0;entryX=0;entryY=0.5;entryDx=0;entryDy=0;" edge="1" parent="1" source="BbvLRZbAMobA44Dv6JU9-12" target="BbvLRZbAMobA44Dv6JU9-6">
          <mxGeometry relative="1" as="geometry" />
        </mxCell>
        <mxCell id="BbvLRZbAMobA44Dv6JU9-16" style="edgeStyle=orthogonalEdgeStyle;rounded=0;orthogonalLoop=1;jettySize=auto;html=1;exitX=1;exitY=0.3333333333333333;exitDx=0;exitDy=0;exitPerimeter=0;entryX=0;entryY=0.5;entryDx=0;entryDy=0;" edge="1" parent="1" source="BbvLRZbAMobA44Dv6JU9-12" target="BbvLRZbAMobA44Dv6JU9-9">
          <mxGeometry relative="1" as="geometry">
            <Array as="points">
              <mxPoint x="200" y="200" />
              <mxPoint x="200" y="260" />
            </Array>
          </mxGeometry>
        </mxCell>
        <mxCell id="BbvLRZbAMobA44Dv6JU9-19" style="edgeStyle=orthogonalEdgeStyle;rounded=0;orthogonalLoop=1;jettySize=auto;html=1;exitX=1;exitY=0.3333333333333333;exitDx=0;exitDy=0;exitPerimeter=0;entryX=0;entryY=0.5;entryDx=0;entryDy=0;" edge="1" parent="1" source="BbvLRZbAMobA44Dv6JU9-12" target="BbvLRZbAMobA44Dv6JU9-18">
          <mxGeometry relative="1" as="geometry" />
        </mxCell>
        <mxCell id="BbvLRZbAMobA44Dv6JU9-12" value="Usuário" style="shape=umlActor;verticalLabelPosition=bottom;verticalAlign=top;html=1;outlineConnect=0;" vertex="1" parent="1">
          <mxGeometry x="130" y="180" width="30" height="60" as="geometry" />
        </mxCell>
        <mxCell id="BbvLRZbAMobA44Dv6JU9-18" value="Visualizar o resultado das competições" style="ellipse;whiteSpace=wrap;html=1;" vertex="1" parent="1">
          <mxGeometry x="240" y="310" width="120" height="80" as="geometry" />
        </mxCell>
        <mxCell id="3fQOWzN_34QPG8lUOtfb-2" value="Depositar ou Resgatar moeda virtual" style="ellipse;whiteSpace=wrap;html=1;" vertex="1" parent="1">
          <mxGeometry x="240" y="400" width="120" height="80" as="geometry" />
        </mxCell>
        <mxCell id="3fQOWzN_34QPG8lUOtfb-3" style="edgeStyle=orthogonalEdgeStyle;rounded=0;orthogonalLoop=1;jettySize=auto;html=1;exitX=1;exitY=0.3333333333333333;exitDx=0;exitDy=0;exitPerimeter=0;entryX=0;entryY=0.5;entryDx=0;entryDy=0;" edge="1" parent="1" source="BbvLRZbAMobA44Dv6JU9-12" target="3fQOWzN_34QPG8lUOtfb-2">
          <mxGeometry relative="1" as="geometry" />
        </mxCell>
      </root>
    </mxGraphModel>
  </diagram>
</mxfile>
